<?xml version="1.0" standalone="no"?>
<!DOCTYPE svg PUBLIC "-//W3C//DTD SVG 20010904//EN"
 "http://www.w3.org/TR/2001/REC-SVG-20010904/DTD/svg10.dtd">
<svg version="1.0" xmlns="http://www.w3.org/2000/svg"
 width="300.000000pt" height="263.000000pt" viewBox="0 0 300.000000 263.000000"
 preserveAspectRatio="xMidYMid meet">
<metadata>
Created by potrace 1.10, written by Peter Selinger 2001-2011
</metadata>
<g transform="translate(0.000000,263.000000) scale(0.100000,-0.100000)"
fill="#000000" stroke="none">
<path d="M1740 2613 c-14 -2 -54 -13 -89 -24 -349 -110 -575 -470 -507 -808
20 -96 52 -174 100 -241 l33 -46 -48 -18 c-85 -30 -159 -125 -159 -206 0 -19
9 -54 20 -77 50 -112 205 -112 259 1 25 50 26 65 7 111 -26 62 -108 84 -151
40 -34 -33 -34 -83 0 -115 14 -13 25 -19 25 -13 0 6 -7 16 -15 23 -18 15 -20
74 -2 88 6 6 24 13 39 17 22 6 33 1 59 -24 28 -29 31 -37 26 -74 -4 -31 -15
-50 -41 -74 -106 -97 -246 40 -178 173 27 52 77 99 129 119 l43 17 54 -49 c91
-84 241 -143 361 -143 62 0 174 27 232 56 64 31 151 108 193 171 89 136 93
345 8 478 -66 104 -190 185 -296 193 -63 5 -63 -7 0 -27 56 -18 150 -83 186
-129 61 -76 77 -126 77 -237 0 -88 -3 -107 -27 -157 -34 -74 -107 -147 -183
-183 -78 -37 -202 -46 -289 -21 -51 15 -156 70 -156 83 0 2 18 26 40 51 21 26
52 77 69 113 36 80 77 105 162 97 45 -5 58 -11 86 -42 25 -27 33 -45 33 -73 0
-78 -73 -141 -149 -129 -73 11 -106 92 -56 141 24 25 69 33 80 15 8 -13 25
-13 25 -1 0 5 -16 15 -35 21 -46 15 -84 -3 -108 -51 -15 -31 -16 -41 -5 -74
38 -113 199 -108 256 7 31 62 23 119 -22 164 -55 55 -125 65 -207 30 -14 -6
-15 4 -11 77 5 91 -5 122 -52 167 -53 49 -136 21 -136 -45 0 -39 19 -58 56
-53 39 4 40 23 2 23 -27 0 -34 4 -36 23 -8 53 59 71 103 28 63 -63 56 -201
-15 -285 -42 -50 -79 -124 -80 -158 0 -40 -19 -34 -60 19 -53 66 -75 109 -94
185 -48 183 10 378 154 523 140 142 322 206 512 180 321 -44 556 -306 575
-642 l6 -97 -33 -33 c-18 -18 -44 -57 -58 -86 -20 -45 -24 -65 -20 -127 2 -41
8 -79 13 -84 7 -7 9 14 7 63 -2 41 1 90 7 109 12 36 69 122 76 115 7 -7 -43
-238 -66 -308 -28 -86 -108 -282 -120 -295 -5 -5 -9 4 -9 24 0 119 -138 189
-246 126 -45 -27 -84 -90 -84 -138 0 -40 24 -92 51 -111 45 -31 109 -16 109
26 0 21 -36 43 -45 28 -3 -5 1 -10 9 -10 9 0 16 -9 16 -20 0 -33 -53 -27 -84
11 -59 69 -7 187 90 205 48 9 79 -2 121 -40 33 -29 37 -40 41 -92 3 -51 0 -64
-21 -96 -14 -20 -23 -39 -20 -41 6 -7 -79 -133 -158 -233 -66 -84 -246 -273
-291 -305 l-26 -19 18 48 c26 70 32 134 20 203 -16 89 -46 146 -110 210 -75
76 -145 103 -251 97 -184 -11 -311 -145 -311 -330 0 -210 201 -356 370 -269
130 67 152 243 41 319 -27 19 -43 23 -82 19 -59 -5 -95 -36 -103 -89 -12 -69
70 -115 116 -66 22 23 27 72 9 84 -8 4 -9 -1 -4 -15 9 -30 -19 -71 -50 -71
-58 0 -73 64 -26 111 35 35 81 38 127 10 81 -49 84 -173 5 -244 -72 -65 -161
-73 -247 -22 -185 109 -162 414 39 509 74 35 132 41 206 22 110 -28 193 -105
233 -214 24 -66 23 -183 -2 -265 -19 -61 -25 -68 -88 -115 -144 -106 -310
-201 -501 -285 -46 -21 -81 -40 -78 -43 3 -3 32 0 64 6 241 50 540 203 768
394 107 90 167 115 231 94 43 -15 84 -66 84 -107 0 -65 -75 -126 -125 -103
-50 23 -22 90 32 78 27 -6 27 -6 9 9 -27 21 -43 19 -71 -10 -28 -27 -30 -37
-14 -68 16 -30 28 -37 69 -37 53 0 95 31 115 84 17 44 17 48 1 91 -29 75 -98
110 -172 87 -19 -5 -34 -9 -34 -8 0 1 26 29 58 61 285 295 512 759 539 1104
l6 83 51 -7 c93 -12 186 -81 216 -159 5 -15 10 -47 10 -72 0 -36 -6 -51 -33
-81 -29 -31 -40 -36 -77 -36 -36 0 -48 6 -72 32 -36 40 -37 83 -3 116 13 14
36 25 50 25 32 0 65 -33 65 -65 0 -14 -9 -34 -20 -45 -15 -15 -16 -20 -6 -20
8 0 22 10 30 22 39 55 -1 128 -69 128 -76 0 -119 -85 -80 -160 41 -78 169 -80
221 -3 25 38 26 145 0 192 -47 88 -149 151 -243 151 l-43 0 0 68 c-1 383 -343
753 -710 768 -84 3 -84 3 -37 -9 27 -7 46 -15 42 -19 -3 -3 4 -6 17 -6 37 1
142 -30 210 -63 76 -35 93 -46 133 -81 16 -16 33 -28 36 -28 9 0 81 -73 104
-105 11 -15 35 -47 53 -71 17 -24 32 -50 32 -57 0 -7 4 -17 9 -23 16 -17 69
-208 75 -269 10 -97 10 -108 3 -150 -4 -22 -9 -65 -11 -95 -5 -62 -42 -222
-61 -260 -7 -14 -15 -40 -18 -57 -8 -42 -62 -160 -148 -323 -49 -93 -161 -248
-244 -340 -47 -52 -94 -107 -103 -122 -9 -16 -21 -28 -27 -28 -7 0 -41 -27
-76 -60 -35 -33 -69 -60 -76 -60 -7 0 -16 -6 -20 -13 -11 -18 -132 -91 -139
-84 -3 3 15 20 40 39 25 18 45 39 46 46 0 7 3 11 8 8 4 -2 37 22 72 55 36 32
68 59 73 59 4 0 7 4 7 10 0 5 26 36 58 68 60 60 121 133 136 161 5 9 22 31 39
48 17 18 27 33 23 33 -4 0 -1 7 6 15 30 33 38 45 38 54 0 5 3 11 8 13 10 4 52
90 52 106 0 6 5 12 10 12 6 0 10 10 10 23 0 13 8 32 18 43 52 56 161 357 162
446 0 15 5 30 11 33 5 4 10 35 10 68 0 34 2 107 5 162 6 114 -6 195 -42 269
-13 27 -24 55 -24 62 0 7 -4 14 -9 16 -5 2 -11 10 -13 18 -2 8 -7 20 -13 26
-5 6 -21 26 -35 45 -72 97 -128 145 -244 208 -158 86 -424 91 -576 11 -19 -10
-49 -26 -67 -35 -18 -10 -64 -47 -102 -83 -142 -137 -186 -241 -186 -442 0
-146 12 -189 80 -291 60 -89 150 -162 234 -189 141 -45 284 -30 395 41 36 23
66 48 66 56 0 7 3 13 8 13 12 0 89 123 102 163 13 43 33 51 25 10 -8 -38 -47
-123 -56 -123 -4 0 -9 -10 -12 -23 -4 -12 -19 -37 -34 -56 -28 -34 -143 -121
-159 -121 -5 0 -22 -8 -39 -18 -24 -14 -54 -17 -160 -17 -120 1 -134 3 -187
28 -121 56 -233 160 -286 263 -60 118 -77 287 -42 429 19 79 69 197 89 210 6
3 11 15 11 25 0 10 6 23 14 27 8 4 48 40 88 78 73 70 95 87 133 104 11 5 41
18 65 29 72 32 141 55 147 49 3 -3 22 0 42 8 20 8 51 16 69 19 19 2 36 7 40
10 6 7 -108 6 -148 -1z m-235 -992 c-20 -34 -38 -61 -41 -61 -8 0 25 70 47
101 37 52 33 23 -6 -40z"/>
<path d="M495 2260 c-168 -54 -323 -202 -407 -389 -40 -88 -78 -240 -77 -310
l0 -56 19 55 c11 30 20 63 20 73 1 62 103 307 152 367 69 83 126 137 179 166
19 10 41 24 49 30 8 7 54 22 102 34 115 28 195 21 293 -25 66 -30 155 -108
155 -134 0 -6 4 -11 9 -11 12 0 41 -91 45 -141 2 -23 -1 -57 -6 -77 -5 -21
-10 -45 -11 -54 -1 -10 -4 -18 -8 -18 -4 0 -10 -12 -13 -28 -4 -15 -20 -41
-36 -59 -16 -17 -26 -34 -23 -37 4 -3 1 -6 -6 -6 -6 0 -21 -9 -33 -20 -24 -22
-38 -26 -38 -9 0 6 9 13 20 16 10 3 22 14 25 24 4 10 10 19 15 19 12 0 44 67
60 123 15 54 8 150 -12 174 -7 9 -12 19 -12 22 7 33 -67 112 -137 146 -47 22
-68 26 -159 28 -72 1 -114 -3 -135 -12 -40 -19 -37 -18 -62 -26 -13 -4 -23
-11 -23 -16 0 -5 -5 -9 -12 -9 -10 0 -33 -23 -142 -140 -18 -19 -41 -53 -51
-75 -11 -22 -22 -42 -25 -45 -4 -3 -13 -26 -21 -52 -7 -27 -17 -48 -20 -48
-27 0 -48 -326 -30 -455 10 -72 67 -264 91 -307 6 -10 10 -22 10 -27 0 -10
105 -190 120 -205 6 -6 10 -16 10 -24 0 -14 49 -84 63 -90 4 -2 7 -10 7 -18 0
-8 4 -14 9 -14 4 0 21 -19 36 -43 16 -23 50 -64 77 -91 26 -28 48 -54 48 -59
0 -5 43 -52 96 -104 52 -52 93 -97 90 -100 -4 -5 -61 35 -97 67 -9 8 -49 44
-89 80 -100 89 -110 98 -110 111 0 5 -5 7 -10 4 -6 -3 -10 0 -10 7 0 7 -21 35
-47 61 -52 55 -137 167 -160 212 -9 17 -21 37 -28 45 -8 8 -14 18 -15 22 0 4
-14 30 -31 57 -17 27 -30 51 -28 54 2 2 -4 11 -13 21 -10 10 -21 29 -24 44 -3
15 -14 50 -24 77 -9 28 -15 57 -12 65 2 8 1 11 -4 7 -7 -7 -22 39 -39 123 -3
14 -8 32 -12 40 -3 8 -12 42 -19 75 l-13 60 4 -95 c15 -349 289 -797 674
-1106 156 -125 377 -251 400 -229 3 4 -12 21 -34 38 -105 84 -210 179 -317
283 -108 108 -116 117 -108 143 13 45 26 65 68 103 100 90 274 57 312 -58 22
-64 -41 -138 -89 -107 -11 7 -16 24 -15 49 2 35 0 36 -12 19 -42 -57 30 -120
97 -85 26 14 49 62 49 102 0 98 -142 187 -253 157 -87 -23 -161 -88 -174 -151
-3 -16 -8 -28 -12 -28 -10 1 -115 140 -186 246 -62 92 -66 102 -61 141 3 23
15 62 26 86 21 44 85 127 98 127 4 0 7 -28 8 -62 0 -113 69 -218 162 -249 117
-39 241 50 242 174 0 73 -51 151 -124 189 -43 23 -144 31 -198 15 -41 -11 -35
7 20 62 136 136 362 96 441 -79 23 -50 28 -159 11 -206 -6 -15 -8 -29 -6 -32
9 -9 28 52 33 109 21 219 -208 381 -407 288 -64 -30 -112 -75 -142 -133 -11
-22 -30 -47 -42 -55 -66 -45 -112 -115 -131 -196 l-12 -50 -30 60 c-34 68 -83
188 -83 204 0 6 7 11 15 11 28 0 110 48 152 88 78 76 92 174 34 233 -38 38
-75 46 -117 25 -70 -33 -82 -122 -22 -155 24 -14 28 -14 47 3 22 20 28 51 11
61 -6 4 -10 -5 -10 -20 0 -30 -24 -43 -45 -25 -25 21 -19 76 11 99 37 29 70
26 105 -8 62 -63 21 -166 -99 -248 -35 -24 -69 -43 -77 -43 -33 0 -71 238 -60
379 11 162 75 352 140 417 23 22 31 25 68 19 59 -10 95 -31 117 -68 24 -39 26
-107 5 -148 -39 -75 -145 -91 -192 -30 -19 25 -16 78 7 101 39 39 110 15 110
-38 0 -12 5 -22 10 -22 20 0 10 51 -15 75 -51 52 -136 23 -151 -52 -20 -101
116 -171 205 -105 66 48 92 143 57 210 -30 57 -71 85 -137 91 l-61 6 54 51
c62 59 129 96 206 114 64 15 86 10 136 -31 115 -96 93 -286 -29 -255 -29 7
-44 50 -26 77 17 28 13 34 -9 14 -35 -32 -25 -87 22 -111 64 -33 137 19 146
105 6 62 -30 147 -77 180 -51 36 -27 37 45 1 68 -33 116 -85 141 -153 15 -42
16 -130 2 -177 -18 -59 -78 -130 -139 -164 -52 -29 -61 -31 -157 -31 -57 0
-103 -3 -103 -7 0 -4 19 -18 43 -30 35 -19 58 -23 132 -23 81 0 96 3 150 32
74 38 138 105 173 181 23 49 27 70 27 152 0 83 -4 103 -29 157 -35 78 -123
163 -203 200 -80 37 -247 43 -338 13z m243 -1155 c49 -21 81 -52 103 -100 51
-110 -17 -225 -133 -225 -79 0 -138 43 -177 130 -21 45 -29 153 -13 176 22 33
157 45 220 19z"/>
</g>
</svg>
